<svg xmlns="http://www.w3.org/2000/svg" width="31.613" height="31.613" viewBox="0 0 31.613 31.613">
  <path id="Instagram-Icon-SVG-098yhjk" d="M0,15.306A15.306,15.306,0,1,1,15.306,30.613,15.308,15.308,0,0,1,0,15.306ZM11.683,6.57a6.473,6.473,0,0,0-2.134.409,4.5,4.5,0,0,0-2.57,2.57,6.427,6.427,0,0,0-.409,2.134c-.043.937-.053,1.237-.053,3.623s.01,2.686.053,3.623a6.473,6.473,0,0,0,.409,2.134,4.5,4.5,0,0,0,2.57,2.57,6.473,6.473,0,0,0,2.134.409c.937.042,1.237.052,3.623.052s2.686-.01,3.623-.052a6.473,6.473,0,0,0,2.134-.409,4.5,4.5,0,0,0,2.57-2.57,6.478,6.478,0,0,0,.409-2.134c.042-.937.052-1.237.052-3.623s-.01-2.686-.052-3.623a6.473,6.473,0,0,0-.409-2.134,4.5,4.5,0,0,0-2.57-2.57A6.478,6.478,0,0,0,18.93,6.57c-.937-.042-1.237-.053-3.623-.053S12.62,6.528,11.683,6.57Zm.055,15.925a4.879,4.879,0,0,1-1.64-.3,2.925,2.925,0,0,1-1.676-1.676,4.9,4.9,0,0,1-.3-1.64c-.042-.931-.051-1.21-.051-3.568s.009-2.637.051-3.568a4.9,4.9,0,0,1,.3-1.64A2.925,2.925,0,0,1,10.1,8.422a4.9,4.9,0,0,1,1.64-.3c.931-.042,1.21-.051,3.568-.051s2.637.009,3.568.051a4.9,4.9,0,0,1,1.64.3A2.925,2.925,0,0,1,22.19,10.1a4.879,4.879,0,0,1,.3,1.64c.042.931.051,1.21.051,3.568s-.009,2.637-.051,3.568a4.9,4.9,0,0,1-.3,1.64,2.922,2.922,0,0,1-1.676,1.676,4.879,4.879,0,0,1-1.64.3c-.931.042-1.21.051-3.568.051S12.669,22.537,11.738,22.495Zm-.967-7.188a4.535,4.535,0,1,0,4.535-4.535A4.534,4.534,0,0,0,10.771,15.306Zm8.189-4.714a1.06,1.06,0,1,0,1.06-1.059A1.061,1.061,0,0,0,18.96,10.592Zm-6.6,4.714a2.943,2.943,0,1,1,2.944,2.944A2.944,2.944,0,0,1,12.362,15.306Z" transform="translate(0.5 0.5)" stroke="rgba(0,0,0,0)" stroke-miterlimit="10" stroke-width="1"/>
</svg>
